<?xml version="1.0" encoding="utf-8"?>
<!-- Svg Vector Icons : http://www.onlinewebfonts.com/icon -->
<!DOCTYPE svg PUBLIC "-//W3C//DTD SVG 1.1//EN" "http://www.w3.org/Graphics/SVG/1.1/DTD/svg11.dtd">
<svg version="1.1" xmlns="http://www.w3.org/2000/svg" xmlns:xlink="http://www.w3.org/1999/xlink" x="0px" y="0px" viewBox="0 0 1000 1000" enable-background="new 0 0 1000 1000" xml:space="preserve">
<metadata> Svg Vector Icons : http://www.onlinewebfonts.com/icon </metadata>
<g><g transform="translate(0.000000,511.000000) scale(0.100000,-0.100000)"><path d="M8483.5,4994.1c-3058.6-136.9-5261.1-831.5-6536-2061.5C1150.7,2162.3,750.3,1245,750.3,186.6c0-639.5,91.9-1138,398.4-2157.5c257.4-854,290.1-1048.1,224.7-1356.7c-42.9-200.2-134.8-382.1-257.4-512.8c-175.7-185.9-347.3-263.6-645.6-294.2c-239-24.5-347.3-110.3-367.8-292.2c-14.3-118.5,30.6-220.6,128.7-294.2c73.6-57.2,87.9-59.3,322.8-65.4c531.2-16.3,1720.3,51.1,2484.5,141C6027.7-4296,8044.3-3249.9,8861.5-1623.6c290.1,578.2,402.5,1107.4,382.1,1808.2c-20.4,674.2-75.6,933.7-492.4,2349.6c-165.5,561.9-187.9,772.3-116.4,1056.3c53.1,206.3,126.7,347.3,251.3,478.1c173.7,183.9,347.3,261.5,643.6,292.2c239.1,24.5,347.3,110.3,367.8,292.2c14.3,118.5-30.6,220.7-128.7,294.2l-75.6,59.3l-420.9,2C9041.3,5010.5,8685.8,5004.3,8483.5,4994.1z M8228.1,4311.7c0-6.1-26.6-59.3-59.3-118.5c-32.7-57.2-87.9-183.9-120.5-279.9c-173.7-498.5-141-880.6,161.4-1859.3c79.7-253.4,173.7-578.2,212.5-725.3C8978-775.7,8166.9-2322.3,6029.7-3233.6c-958.2-410.7-2178-684.5-3604.1-809.1c-592.5-53.1-653.8-57.2-653.8-47c0,6.1,36.8,81.7,79.7,169.6c45,89.9,106.2,245.2,134.8,345.3c130.8,451.5,83.8,858.1-214.5,1808.2C1520.5-967.8,1434.7-553,1410.2-50.4c-34.7,760,165.5,1464.9,580.3,2051.3c159.4,222.7,543.5,604.8,794.8,792.7c1101.2,815.2,2711.2,1299.4,4973,1495.6C8124,4321.9,8228.1,4326,8228.1,4311.7z"/><path d="M4622,2368.7c-964.4-161.4-1722.4-927.6-1879.7-1898.1c-89.9-555.7,49-1183,363.7-1642.7c355.5-516.9,929.6-880.6,1546.7-972.5c1248.4-190,2417,666.1,2605,1910.3c132.8,870.4-245.2,1742.8-972.5,2241.3C5825.4,2323.8,5179.8,2464.7,4622,2368.7z M5388.2,1700.6c427-116.5,751.9-349.4,980.7-702.8c181.8-277.9,255.4-529.2,255.4-884.7c0-459.7-155.3-839.7-469.9-1154.4c-314.6-314.7-694.7-469.9-1154.4-469.9c-355.5,0-606.8,73.5-884.7,255.4c-443.4,288.1-709,745.7-743.7,1279c-53.1,817.3,519,1538.5,1352.6,1701.9C4861.1,1751.7,5249.3,1737.4,5388.2,1700.6z"/></g></g>
</svg>