<?xml version="1.0" encoding="iso-8859-1"?>
<!-- Generator: Adobe Illustrator 16.0.0, SVG Export Plug-In . SVG Version: 6.00 Build 0)  -->
<!DOCTYPE svg PUBLIC "-//W3C//DTD SVG 1.1//EN" "http://www.w3.org/Graphics/SVG/1.1/DTD/svg11.dtd">
<svg version="1.1" id="Capa_1" xmlns="http://www.w3.org/2000/svg" xmlns:xlink="http://www.w3.org/1999/xlink" x="0px" y="0px"
	 width="612px" height="612px" viewBox="0 0 612 612" style="enable-background:new 0 0 612 612;" xml:space="preserve">
<g>
	<path d="M545.319,59.3C524.22,30.6,438.22,0,306.22,0s-218,26.8-239.1,59.3c-38.2,63.1,111,110.9,59.3,158.7
		c-101.3,91.8-68.8,185.5-38.2,216.1c40.2,40.2,78.4,65,179.8,99.5c59.2,19.101,59.2,78.4,59.2,78.4s91.8-88-80.3-158.7
		c-70.7-28.7,17.2-103.3,139.6-177.9C528.12,187.4,575.92,97.5,545.319,59.3z M306.22,19.1c116.7,0,210.4,24.9,210.4,57.4
		s-93.7,57.4-210.4,57.4S95.82,109,95.82,76.5C95.82,45.9,189.52,19.1,306.22,19.1z M359.72,269.7
		c-135.7,82.2-208.4,162.5-118.5,202.7c110.9,47.8,89.9,89.899,89.9,89.899s-9.601-26.8-55.5-45.899
		c-45.9-19.101-93.7-24.9-164.5-86.101c-32.5-28.7-72.7-109,36.3-206.6c32.5-45.9-26.8-86.1-53.6-118.6
		c32.6,28.8,114.9,47.9,212.4,47.9c120.5,0,219.9-30.6,229.5-70.8C541.42,122.4,476.42,200.8,359.72,269.7z"/>
</g>
<g>
</g>
<g>
</g>
<g>
</g>
<g>
</g>
<g>
</g>
<g>
</g>
<g>
</g>
<g>
</g>
<g>
</g>
<g>
</g>
<g>
</g>
<g>
</g>
<g>
</g>
<g>
</g>
<g>
</g>
</svg>
