<?xml version="1.0" encoding="utf-8"?>
<!-- Svg Vector Icons : http://www.onlinewebfonts.com/icon -->
<!DOCTYPE svg PUBLIC "-//W3C//DTD SVG 1.1//EN" "http://www.w3.org/Graphics/SVG/1.1/DTD/svg11.dtd">
<svg version="1.1" xmlns="http://www.w3.org/2000/svg" xmlns:xlink="http://www.w3.org/1999/xlink" x="0px" y="0px" viewBox="0 0 1000 1000" enable-background="new 0 0 1000 1000" xml:space="preserve">
<metadata> Svg Vector Icons : http://www.onlinewebfonts.com/icon </metadata>
<g><path d="M281.3,122.7c4.4,0,8.7,0.2,13,0.4c1.3,0.1,2.7,0.2,4,0.3c3,0.2,6,0.5,8.9,0.8c1.5,0.2,2.9,0.4,4.4,0.6c2.9,0.4,5.8,0.9,8.7,1.4c1.3,0.2,2.6,0.4,3.9,0.7c3.7,0.7,7.3,1.5,10.9,2.4c0.4,0.1,0.9,0.2,1.4,0.3c4.1,1.1,8.2,2.2,12.2,3.5c0.8,0.3,1.6,0.6,2.5,0.8c3.2,1.1,6.3,2.2,9.4,3.3c1.1,0.4,2.1,0.8,3.2,1.3c3,1.2,5.9,2.4,8.8,3.7c0.9,0.4,1.9,0.8,2.8,1.3c3.5,1.6,6.9,3.3,10.3,5.2c0.2,0.1,0.4,0.2,0.7,0.3c7.6,4.1,14.9,8.6,21.9,13.4c0.5,0.4,1,0.7,1.5,1.1c3,2.1,5.9,4.3,8.8,6.6c0.5,0.4,1,0.7,1.4,1.1c10.1,8.1,19.5,17,28,26.6c0.1,0.1,0.2,0.2,0.2,0.3c2.7,3.1,5.4,6.3,7.9,9.5c0.2,0.3,0.4,0.6,0.7,0.8c12.5,16.1,22.9,33.9,30.7,53c16.5-5.9,34.3-9.1,52.9-9.1c71.9,0,132.6,48.1,151.7,113.9l52.6,13.7c-15-99.5-100.7-175.8-204.2-175.8c-9.1,0-18,0.6-26.7,1.8C466.2,127.2,379.9,74.5,281.3,74.5C131.5,74.5,10,196.1,10,346.2C10,473.7,97.7,580.7,216,610c-12.4,16.8-19.8,37.6-19.8,60.1c0,54.6,43.1,99,97.1,101.2v0.2h257.9c-0.1,0.2-0.2,0.4-0.4,0.7h78.7c2.6-0.4,5.2-0.7,7.9-0.7c29.1,0,52.7,23.6,52.7,52.8c0,29.1-23.6,52.8-52.7,52.8c-12.6,0-24.1-4.5-33.2-12c-4.5-5.4-11.2-9-18.8-9c-13.6,0-24.6,11-24.6,24.6c0,7.3,3.3,13.8,8.3,18.3l0,0c18,16.5,41.9,26.6,68.3,26.6c55.9,0,101.2-45.4,101.2-101.3c0-54.2-42.6-98.3-96-101.1v-0.3H504H383.7h-82.2v-0.2c-1.4,0.1-2.7,0.2-4.1,0.2c-29.1,0-52.7-23.6-52.7-52.8c0-29.1,23.6-52.8,52.7-52.8c1.4,0,2.7,0.1,4.1,0.2v-0.2h82.3H504h22.1c4.7,0.3,9.5,0.5,14.3,0.5c4.7,0,9.4-0.2,14-0.5h71v-0.2c1.4,0.1,2.7,0.2,4.1,0.2c55.9,0,101.2-45.4,101.2-101.4c0-56-45.3-101.4-101.2-101.4c-24.6,0-47.2,8.9-64.7,23.5l0.2,0.2c-6.5,4.5-10.8,12-10.8,20.5c0,13.7,11.1,24.9,24.9,24.9c8.6,0,16.2-4.4,20.7-11c8.5-5.9,18.7-9.4,29.8-9.4c29.1,0,52.7,23.6,52.7,52.7c0,24.9-17.3,45.7-40.5,51.2v1.5H277.3v-0.1C156.1,566.4,58.6,467.5,58.6,345.7C58.6,222.5,158.3,122.7,281.3,122.7z M888.7,471.3c-22.9,0-43.9,7.7-60.8,20.4c-7.3,4.3-12.2,12.1-12.2,21.2c0,13.6,11,24.6,24.6,24.6c7.2,0,13.7-3.2,18.2-8.1l0.1,0.1c8.5-6,18.9-9.5,30.1-9.5c29,0,52.6,23.6,52.6,52.7c0,27.7-21.4,50.4-48.6,52.5v0.2h-90.5h-22.9H755v48.7h121.4v-0.8c4,0.5,8.1,0.8,12.2,0.8c56,0,101.3-45.4,101.3-101.4C990,516.8,944.6,471.3,888.7,471.3z"/></g>
</svg>